<svg xmlns="http://www.w3.org/2000/svg" viewBox="0 0 814.25 767.91"><defs><style>.cls-1{fill:#f7f7f7;}.cls-13,.cls-2,.cls-4,.cls-8{fill:none;stroke-linecap:round;}.cls-2{stroke:#e5e5e5;stroke-width:3.06px;}.cls-13,.cls-2,.cls-8{stroke-linejoin:round;}.cls-3{fill:#fefddb;}.cls-4{stroke:#fe697d;stroke-miterlimit:10;stroke-width:5px;}.cls-5{fill:#777;}.cls-6{fill:#383838;}.cls-7,.cls-9{fill:#8ce08c;}.cls-8{stroke:#2b7c63;stroke-width:4.49px;}.cls-9{fill-rule:evenodd;}.cls-10{fill:#c2c2c2;}.cls-11{fill:#fe697d;}.cls-12{fill:#9ef5ee;}.cls-13{stroke:#9ef5ee;stroke-width:5.14px;}</style></defs><title>watermelon-pack-illustration-08</title><g id="Layer_2" data-name="Layer 2"><g id="vector"><path class="cls-1" d="M391.17,52.13C493.5,41.06,603.76,68.76,650,137.61,696.26,206.23,678.5,316,684.1,424.85s34.42,216.68-5.93,267.56-150,44.69-232.86,21.09S306.48,649.09,246.76,603.15c-59.5-46-122.71-96.83-147.69-171.13-25.2-74.29-12.17-171.78,41.55-245.44S288.84,63.19,391.17,52.13Z"/><path class="cls-2" d="M561,134.28,341.08,406.21l395.74,99.2Z"/><polygon class="cls-3" points="491.37 618.65 319.24 618.65 147.11 618.65 0 749.81 319.24 749.81 638.48 749.81 491.37 618.65"/><path class="cls-4" d="M393,699.53c-24.23,0-24.23-26-48.47-26s-24.24,26-48.48,26-24.23-26-48.47-26-24.24,26-48.48,26-24.24-26-48.48-26"/><path class="cls-5" d="M754.75,361.72c5,17-4,109-24,189,8,39,36,175,36,175h-45l-93-233Z"/><path class="cls-6" d="M746.63,472.13c8.48-53.16,11.5-98.92,8.12-110.41l-126,131L671.93,600.9C686.16,555.66,709.77,505.57,746.63,472.13Z"/><circle class="cls-7" cx="588.72" cy="49.76" r="49.76"/><path class="cls-8" d="M534.19,31.59A93.06,93.06,0,0,0,638.87,19.35"/><path class="cls-8" d="M557.74,67.25c-4-3.17-6.12-7.26-4.65-9.14s5.95-.84,10,2.33,6.13,7.26,4.66,9.14S561.79,70.42,557.74,67.25Z"/><path class="cls-9" d="M526.1,276.1a34.32,34.32,0,1,1,34.31,34.31A34.31,34.31,0,0,1,526.1,276.1Z"/><path class="cls-10" d="M547.73,729c-14,0-48.8,1.74-70.69,38.9H578V729Z"/><path class="cls-5" d="M736.16,724c-14,0-48.8,1.74-70.69,38.9H766.4l.35-37.19Z"/><polygon class="cls-11" points="619.25 343.22 814.25 211.22 663.25 76.22 619.25 343.22"/><path class="cls-10" d="M638.48,354.8s141.61-97.19,150.61-97.19c0,0,25.16,113.25-142.34,247.11-8,25-69,224-69,224l-42,6s33-258,40-270S638.48,354.8,638.48,354.8Z"/><path class="cls-12" d="M507.19,171.76h0a20,20,0,0,1,20,20V687.68a0,0,0,0,1,0,0h-40a0,0,0,0,1,0,0V191.76a20,20,0,0,1,20-20Z" transform="translate(205.75 -162.76) rotate(22.76)"/><polygon class="cls-12" points="393.98 699.53 425.82 675.33 388.94 659.86 393.98 699.53"/><path class="cls-9" d="M481.67,410.59A34.32,34.32,0,1,1,516,444.91,34.31,34.31,0,0,1,481.67,410.59Z"/><line class="cls-13" x1="680.68" y1="91.8" x2="656.68" y2="116.09"/><line class="cls-13" x1="700.68" y1="109.68" x2="649.19" y2="161.54"/><line class="cls-13" x1="721.05" y1="127.89" x2="641.54" y2="207.98"/><line class="cls-13" x1="746.55" y1="150.69" x2="631.96" y2="266.12"/><line class="cls-13" x1="769.35" y1="171.08" x2="623.48" y2="318.02"/><line class="cls-13" x1="791.23" y1="190.64" x2="681.72" y2="300.93"/></g></g></svg>