<svg xmlns="http://www.w3.org/2000/svg" viewBox="0 0 708.03 757.59"><defs><style>.cls-1{fill:#f7f7f7;}.cls-12,.cls-14,.cls-2,.cls-7{fill:none;stroke-linecap:round;stroke-linejoin:round;}.cls-2{stroke:#e5e5e5;stroke-width:3.06px;}.cls-3,.cls-8{fill:#777;}.cls-10,.cls-12,.cls-13,.cls-14,.cls-3,.cls-5,.cls-9{fill-rule:evenodd;}.cls-4{fill:#9ef5ee;}.cls-11,.cls-5{fill:#fe697d;}.cls-6,.cls-9{fill:#8ce08c;}.cls-7{stroke:#2b7c63;stroke-width:3.85px;}.cls-10{fill:#c2c2c2;}.cls-12{stroke:#9ef5ee;stroke-width:5.14px;}.cls-13{fill:#383838;}.cls-14{stroke:#fff;stroke-width:16.23px;}</style></defs><title>watermelon-pack-illustration-09</title><g id="Layer_2" data-name="Layer 2"><g id="Layer_2-2" data-name="Layer 2"><path class="cls-1" d="M450.14,232.67C510,322.32,589.91,381.52,597,453.68c7.23,72.32-58.2,157.59-131.53,171.89C392.12,640,310.71,583.35,223.76,540.8c-87-42.72-179.63-71.48-211.09-135.23C-18.78,341.66,11.16,242.6,71,153,130.75,63.47,220.73-16.93,285.48,3.09,350.41,22.94,390.27,143,450.14,232.67Z"/><path class="cls-2" d="M239.36,243c0-129,104.57-233.58,233.57-233.58S706.5,114,706.5,243,601.93,476.53,472.93,476.53,239.36,372,239.36,243Z"/><path class="cls-3" d="M346.55,334.58c-2,5.28-57.89,175.32-57.89,187.84S511.6,666.18,530.52,669.78c10.36-4.5,10.38-24.78,10.38-35.14s-81.76-69-81.76-69Z"/><rect class="cls-4" x="293.53" y="149.24" width="82" height="166.44"/><path class="cls-5" d="M422.63,120.13c79.39,0,69.47,164.65,64.77,182.73-11.11,13.62-107.23,20.25-141.17,0C333.54,271.85,347.53,120.13,422.63,120.13Z"/><circle class="cls-6" cx="422.63" cy="48.84" r="42.69"/><path class="cls-7" d="M391.84,10.33a79.84,79.84,0,0,0,81.09,40"/><path class="cls-7" d="M417.18,60c-1.44-4.17-1-8.09.91-8.76s4.67,2.17,6.11,6.34,1,8.09-.91,8.75S418.61,64.16,417.18,60Z"/><path class="cls-8" d="M527.63,660.09c-5.11,13-16.24,46,10.31,80l37-93.92L538.7,632Z"/><path class="cls-9" d="M268.48,203a25,25,0,1,1,25,25A25.05,25.05,0,0,1,268.48,203Z"/><path class="cls-10" d="M346.55,334.58c10.32,4,105.63,13.1,137,0,3.17,25.41.17,423,.17,423H372.33c0-14.71,22-41,66.83-41.44C436.49,696.1,346.55,334.58,346.55,334.58Z"/><rect class="cls-11" x="148.63" y="78.7" width="75.47" height="75.47" rx="20.32"/><circle class="cls-4" cx="224.1" cy="78.7" r="16.66"/><path class="cls-12" d="M447.36,126.61a64.29,64.29,0,0,0,40.57,88"/><path class="cls-12" d="M342.08,258.85a64.24,64.24,0,0,0,37-116.77"/><path class="cls-12" d="M490.31,246.62a64.27,64.27,0,0,0-97.16,67.32"/><polygon class="cls-13" points="412.06 249.15 378.85 242.64 370.9 185.18 404.11 191.69 412.06 249.15"/><path class="cls-9" d="M391.48,243a25,25,0,1,1,25,25A25.05,25.05,0,0,1,391.48,243Z"/><path class="cls-14" d="M438.64,146.43c16,14.7,25,40.15,29.7,67"/></g></g></svg>