<svg xmlns="http://www.w3.org/2000/svg" viewBox="0 0 741.23 609.78"><defs><style>.cls-1{fill:#f7f7f7;}.cls-11,.cls-12,.cls-2,.cls-7,.cls-8{fill:none;stroke-linecap:round;stroke-linejoin:round;}.cls-2,.cls-7{stroke:#e5e5e5;}.cls-2{stroke-width:4.36px;}.cls-3{fill:#fefddb;}.cls-4{fill:#9ef5ee;}.cls-5{fill:#fe697d;}.cls-10,.cls-6{fill:#8ce08c;}.cls-7{stroke-width:3.06px;}.cls-8{stroke:#2b7c63;stroke-width:3.65px;}.cls-9{fill:#2b7c63;}.cls-10{fill-rule:evenodd;}.cls-11{stroke:#fff;}.cls-11,.cls-12{stroke-width:5.14px;}.cls-12{stroke:#9ef5ee;}.cls-13{fill:#777;}.cls-14{fill:#c2c2c2;}.cls-15{fill:#fff;}</style></defs><title>watermelon-pack-illustration-18</title><g id="Layer_2" data-name="Layer 2"><g id="vector"><path class="cls-1" d="M557.12,128.2C632,169.45,726.21,224.89,739.5,293.63S685.27,444.54,610.43,508.85s-157,111.2-226.83,99S256.21,524.43,183,460c-73-64.46-161.45-122-179.48-197.65S38.09,93.07,111.1,51.83s166.64-30.09,241.18-11S482.27,87,557.12,128.2Z"/><path class="cls-2" d="M354,24.12,6.15,389.58,613.66,508Z"/><rect class="cls-3" x="140.07" width="392.22" height="360.24"/><polygon class="cls-4" points="165.06 9.9 150.11 35.78 180 35.78 165.06 9.9"/><circle class="cls-5" cx="202.77" cy="21.84" r="14.33"/><rect class="cls-6" x="230.28" y="8.69" width="27.09" height="27.09"/><line class="cls-7" x1="119.59" y1="46.78" x2="532.7" y2="46.78"/><path class="cls-4" d="M708.62,446.31H504.56a31,31,0,0,1-31-31V211.28a31,31,0,0,1,31-31H708.62a31,31,0,0,1,31,31V415.34A31,31,0,0,1,708.62,446.31Z"/><path class="cls-5" d="M277.54,303.14c108.16,0,108.16,217.58,97.54,236.82S201,556.28,188.91,540,172.2,303.14,277.54,303.14Z"/><circle class="cls-6" cx="273.48" cy="207.17" r="58.86"/><path class="cls-8" d="M309.66,185.71c-.86-6-3.84-10.56-6.63-10.15s-4.37,5.6-3.5,11.61,3.84,10.57,6.63,10.16S310.53,191.73,309.66,185.71Z"/><circle class="cls-9" cx="241.86" cy="95.74" r="36.81"/><path class="cls-10" d="M299.92,336.72a35.34,35.34,0,1,1,35.34,35.33A35.34,35.34,0,0,1,299.92,336.72Z"/><polyline class="cls-11" points="473.59 372.05 524.96 320.68 545.59 341.31 612.59 274.31 642.09 303.81 709.59 236.31 738.66 265.38"/><path class="cls-12" d="M37.09,356.81c0-16.11,26-16.11,26-32.22s-26-16.11-26-32.22,26-16.1,26-32.21-26-16.11-26-32.22,26-16.12,26-32.23-26-16.11-26-32.22,26-16.11,26-32.22-26-16.12-26-32.23,26-16.11,26-32.23"/><path class="cls-10" d="M523.92,336.72a35.34,35.34,0,1,1,35.34,35.33A35.34,35.34,0,0,1,523.92,336.72Z"/><rect class="cls-5" x="471.09" y="534.81" width="193" height="15"/><polygon class="cls-3" points="676.93 542.31 663.94 534.81 663.94 549.81 676.93 542.31"/><polygon class="cls-5" points="672.05 539.5 672.05 545.13 676.93 542.31 672.05 539.5"/><path class="cls-12" d="M276.2,553.21a98.69,98.69,0,0,1,98.69-97.55c.81,0,1.62,0,2.42,0"/><path class="cls-12" d="M254.56,307.07a98.7,98.7,0,0,1-59.88,177.16,101.37,101.37,0,0,1-11.89-.7"/><polygon class="cls-13" points="361.59 530.31 238.59 530.31 238.59 600.31 275.59 600.31 361.59 530.31"/><rect class="cls-14" x="13.59" y="433.31" width="262" height="167"/><circle class="cls-15" cx="144.59" cy="516.81" r="18"/></g></g></svg>