<svg xmlns="http://www.w3.org/2000/svg" viewBox="0 0 784.7 727.42"><defs><style>.cls-1{fill:#f7f7f7;}.cls-11,.cls-13,.cls-14,.cls-2,.cls-3,.cls-5,.cls-6,.cls-7{fill:none;stroke-linecap:round;stroke-linejoin:round;}.cls-2,.cls-3{stroke:#e5e5e5;}.cls-2{stroke-width:3.06px;}.cls-3{stroke-width:4.13px;}.cls-12,.cls-4{fill:#8ce08c;}.cls-5,.cls-6{stroke:#2b7c63;}.cls-5{stroke-width:6.62px;}.cls-6{stroke-width:9.49px;}.cls-7{stroke:#fe697d;stroke-width:11.03px;}.cls-8{fill:#c2c2c2;}.cls-9{fill:#fe697d;}.cls-10{fill:#fff;}.cls-11,.cls-13{stroke:#9ef5ee;}.cls-11{stroke-width:10.07px;}.cls-12,.cls-13{fill-rule:evenodd;}.cls-13{stroke-width:6.94px;}.cls-14{stroke:#fff;stroke-width:16.23px;}</style></defs><title>watermelon-pack-illustration-12</title><g id="Layer_2" data-name="Layer 2"><g id="vector"><path class="cls-1" d="M704.73,171.82c24.76,65.32-29.93,159.73-64.89,237.07S589.77,546.23,535.78,601.2s-146.85,105-221.26,82.52S183.89,565.81,163.19,465.25s-6-206.29,51.19-279S371.58,73.78,473.68,72,680,106.51,704.73,171.82Z"/><circle class="cls-2" cx="581.37" cy="493.25" r="201.8"/><path class="cls-3" d="M299.23,13.06,2.07,380.49l534.7,134Z"/><circle class="cls-4" cx="442.01" cy="223.64" r="73.41"/><path class="cls-5" d="M480.88,148.29a137.3,137.3,0,0,1-123.17,94.89"/><path class="cls-5" d="M492.73,210.21c1-7.51-1-14-4.5-14.45s-7.15,5.24-8.15,12.75,1,14,4.5,14.45S491.73,217.72,492.73,210.21Z"/><circle class="cls-6" cx="620.86" cy="31.31" r="26.56"/><polygon class="cls-7" points="202.16 119 151.9 142.11 197.05 174.08 202.16 119"/><rect class="cls-8" x="678.1" y="167.79" width="64.69" height="64.69" rx="15.68" transform="translate(-27.56 211.85) rotate(-16.64)"/><circle class="cls-9" cx="732.17" cy="159.88" r="12.55"/><path class="cls-10" d="M702.42,188.12l-5.27,22.19a4.91,4.91,0,0,0,6.18,5.83l21.85-6.53a4.9,4.9,0,0,0,2-8.27l-16.58-15.65A4.91,4.91,0,0,0,702.42,188.12Z"/><path class="cls-11" d="M354.21,13.6V49a7.63,7.63,0,0,0,11.44,6.61l30.67-17.72a7.62,7.62,0,0,0,0-13.2L365.65,7A7.63,7.63,0,0,0,354.21,13.6Z"/><path class="cls-12" d="M650,375.7a52.21,52.21,0,1,1,52.21,52.21A52.21,52.21,0,0,1,650,375.7Z"/><path class="cls-12" d="M103,375.7a52.21,52.21,0,1,1,52.21,52.21A52.21,52.21,0,0,1,103,375.7Z"/><polygon class="cls-9" points="259.97 371.91 420.82 727.42 598.34 376.67 259.97 371.91"/><path class="cls-13" d="M356.56,373.27c.24,3.1.36,6.24.36,9.4a120.28,120.28,0,0,1-48.4,96.56"/><path class="cls-13" d="M350.4,571.78a120.65,120.65,0,0,1,124.19,49.41"/><path class="cls-13" d="M333.74,535a120.56,120.56,0,0,1,162.94,42.56"/><path class="cls-13" d="M560,452.44a120.1,120.1,0,0,1-31-76.75"/><line class="cls-14" x1="483.65" y1="544.3" x2="525.76" y2="461.1"/></g></g></svg>