<svg xmlns="http://www.w3.org/2000/svg" viewBox="0 0 730.2 893.39"><defs><style>.cls-1{fill:#f7f7f7;}.cls-13,.cls-15,.cls-16,.cls-2,.cls-4{fill:none;stroke-linecap:round;stroke-linejoin:round;}.cls-2{stroke:#e5e5e5;stroke-width:4.36px;}.cls-3,.cls-7{fill:#8ce08c;}.cls-4{stroke:#2b7c63;stroke-width:4.36px;}.cls-5{fill:#2b7c63;}.cls-6{fill:#fefddb;}.cls-11,.cls-12,.cls-7{fill-rule:evenodd;}.cls-12,.cls-8{fill:#777;}.cls-11,.cls-9{fill:#c2c2c2;}.cls-10{fill:#fe697d;}.cls-13{stroke:#909090;}.cls-13,.cls-15{stroke-width:3.06px;}.cls-14{fill:#9ef5ee;}.cls-15{stroke:#fff;}.cls-16{stroke:#9ef5ee;stroke-width:5.14px;}</style></defs><title>watermelon-pack-illustration-17</title><g id="Layer_2" data-name="Layer 2"><g id="vector"><path class="cls-1" d="M536.89,159.34c61.58,67.3,102.41,143.9,107.31,219.85,4.9,75.79-26,150.92-63.21,229.16C543.75,686.42,500.31,767.6,434.16,796,368,824.28,279,799.78,213,756.33,147,713.05,104.06,651,73.35,587.11s-49-129.68-42-194.85c7-65,39.37-129.2,90.16-198.45C172.17,124.55,241.09,50.56,316.88,42.4S475.15,92.05,536.89,159.34Z"/><path class="cls-2" d="M350.05,112.9,2.18,478.37l607.51,118.4Z"/><circle class="cls-3" cx="272.35" cy="248.06" r="48.36"/><path class="cls-4" d="M305.76,239.21c.67-5-.66-9.21-3-9.52s-4.71,3.45-5.37,8.4.66,9.21,3,9.52S305.1,244.16,305.76,239.21Z"/><polygon class="cls-5" points="289.85 121.81 320.71 188.44 247.58 181.85 289.85 121.81"/><polygon class="cls-6" points="686.21 240.47 662.22 329.98 596.7 264.46 686.21 240.47"/><path class="cls-7" d="M453.54,310.81a34.32,34.32,0,1,1,34.32,34.32A34.33,34.33,0,0,1,453.54,310.81Z"/><path class="cls-8" d="M322.43,835.7c20.72,0,72.38,2.58,104.85,57.69H277.57V835.7Z"/><path class="cls-9" d="M510.43,718.5c16-13.23,57.38-44.2,117.55-22.5L512.71,791.54,475.9,747.13Z"/><path class="cls-10" d="M284,329.2C325.62,337.65,374.35,441,325.57,568c-37.07,25-141.47,9.62-172.12-14.21C140.41,472.8,214.1,315,284,329.2Z"/><path class="cls-11" d="M151.94,575.29c0-30.09,198.35-144.11,253.78-144.11,82.3,0,112.58,264.53,116.93,280.37-5.94,6.34-46.07,37.54-46.07,37.54-14.65-21.77-123.52-190.82-123.52-190.82C334.85,573.31,262,643,224.16,643,202.62,643,151.94,624.78,151.94,575.29Z"/><path class="cls-12" d="M389.18,527c101.18,24.23-15.29,271.36-42.53,313.37-18.06,8.53-55.62,11.62-69.08-3.15C275.27,818.46,263.79,496.93,389.18,527Z"/><path class="cls-7" d="M141.35,531.25a34.32,34.32,0,1,1,34.32,34.32A34.32,34.32,0,0,1,141.35,531.25Z"/><polyline class="cls-13" points="253.87 642.91 38.92 642.91 13.1 412.38"/><line class="cls-13" x1="90.73" y1="642.91" x2="15.53" y2="866.26"/><line class="cls-13" x1="192.19" y1="642.91" x2="267.38" y2="866.26"/><rect class="cls-14" x="573.74" width="99.36" height="74.77" rx="18.63"/><line class="cls-15" x1="602.83" y1="28.05" x2="644" y2="28.05"/><line class="cls-15" x1="602.83" y1="37.39" x2="644" y2="37.39"/><line class="cls-15" x1="602.83" y1="46.72" x2="644" y2="46.72"/><polygon class="cls-14" points="623.42 96.37 635.89 74.77 610.95 74.77 623.42 96.37"/><path class="cls-6" d="M594,148.84l-48.57-45.46-60.22,64.34,48.57,45.46c6.9,6.45,26-2.72,42.6-20.48S600.85,155.3,594,148.84Z"/><ellipse class="cls-16" cx="577.47" cy="193.76" rx="44.06" ry="17.11" transform="translate(41.39 482.96) rotate(-46.89)"/><rect class="cls-10" x="661.94" y="129.56" width="58.1" height="58.1" transform="translate(229.77 697.04) rotate(-62.34)"/></g></g></svg>