<svg xmlns="http://www.w3.org/2000/svg" viewBox="0 0 734.93 553.84"><defs><style>.cls-1{fill:#f7f7f7;}.cls-13,.cls-14,.cls-2,.cls-3,.cls-5,.cls-7{fill:none;stroke-linecap:round;stroke-linejoin:round;}.cls-2,.cls-3{stroke:#e5e5e5;}.cls-2{stroke-width:2.47px;}.cls-3{stroke-width:3.06px;}.cls-4{fill:#fe697d;}.cls-14,.cls-5{stroke:#fff;}.cls-5{stroke-width:8px;}.cls-11,.cls-6{fill:#8ce08c;}.cls-7{stroke:#2b7c63;stroke-width:4.93px;}.cls-8{fill:#2b7c63;}.cls-9{fill:#c2c2c2;}.cls-10{fill:#fff;}.cls-11{fill-rule:evenodd;}.cls-12{fill:#777;}.cls-13{stroke:#9ef5ee;stroke-width:5.14px;}.cls-14{stroke-width:2.48px;}</style></defs><title>watermelon-pack-illustration-10</title><g id="Layer_2" data-name="Layer 2"><g id="vector"><path class="cls-1" d="M591.76,97.07c67.19,71.36,95,187.14,65.66,279.73s-115.5,162-196.29,174.78-156-31-218.93-72.19S128.78,399.71,90.33,330.16,25.77,160.1,64.64,95.27,207.22,1.14,312.45,0,524.57,25.72,591.76,97.07Z"/><circle class="cls-2" cx="570.88" cy="368.82" r="162.81"/><path class="cls-3" d="M221.46,91.35,1.53,363.29l395.74,99.2Z"/><path class="cls-4" d="M311.17,247c110.16,3.7,116.5,210.4,103.58,231.56s-171.65,13.7-192.82-13.69S229.12,244.19,311.17,247Z"/><line class="cls-5" x1="300.45" y1="290.34" x2="361.54" y2="379.3"/><circle class="cls-6" cx="340.99" cy="159.4" r="54.65"/><path class="cls-7" d="M337.31,154c.75-5.59-.75-10.41-3.36-10.76s-5.32,3.9-6.07,9.49.76,10.41,3.36,10.76S336.56,159.63,337.31,154Z"/><polygon class="cls-8" points="306.7 25.01 313.95 107.68 238.73 72.63 306.7 25.01"/><rect class="cls-9" x="447.25" y="73.29" width="64.69" height="64.69" rx="15.68" transform="translate(0.13 -0.6) rotate(0.07)"/><circle class="cls-4" cx="511.99" cy="73.33" r="12.55"/><path class="cls-10" d="M475.37,91.82l-11.43,19.74a4.9,4.9,0,0,0,4.24,7.36l22.8,0a4.91,4.91,0,0,0,4.26-7.35L483.86,91.83A4.9,4.9,0,0,0,475.37,91.82Z"/><path class="cls-11" d="M311.17,343.49a26.33,26.33,0,1,1,26.33,26.33A26.33,26.33,0,0,1,311.17,343.49Z"/><polygon class="cls-9" points="438.14 435.43 353.14 450.43 383.14 324.43 468.14 309.43 438.14 435.43"/><polygon class="cls-12" points="442.25 438.23 357.25 453.23 387.25 327.23 472.25 312.23 442.25 438.23"/><path class="cls-13" d="M389.57,323.56a7.88,7.88,0,0,1-.29-2.13,8,8,0,1,1,8,8"/><path class="cls-13" d="M413.63,319.29a8.29,8.29,0,0,1-.28-2.13,8,8,0,1,1,8,8"/><path class="cls-13" d="M435.4,315.57a7.88,7.88,0,0,1-.29-2.13,8,8,0,1,1,8,8"/><path class="cls-13" d="M457.93,311.31a8,8,0,1,1,7.7,5.85"/><path class="cls-11" d="M439.3,379.93a26.33,26.33,0,1,1,26.33,26.33A26.33,26.33,0,0,1,439.3,379.93Z"/><rect class="cls-9" x="561.17" y="126.34" width="85.72" height="104.16" rx="5.32"/><circle class="cls-10" cx="577.04" cy="144.16" r="6.16"/><line class="cls-14" x1="591.44" y1="144.16" x2="637.19" y2="144.16"/><circle class="cls-10" cx="577.04" cy="169.43" r="6.16"/><line class="cls-14" x1="591.44" y1="169.43" x2="637.19" y2="169.43"/><circle class="cls-10" cx="577.04" cy="194.69" r="6.16"/><line class="cls-14" x1="591.44" y1="194.69" x2="637.19" y2="194.69"/></g></g></svg>