<svg xmlns="http://www.w3.org/2000/svg" viewBox="0 0 701.77 829.19"><defs><style>.cls-1{fill:#f7f7f7;}.cls-13,.cls-2,.cls-7{fill:none;stroke-linecap:round;stroke-linejoin:round;}.cls-2{stroke:#e5e5e5;stroke-width:3.06px;}.cls-3{fill:#777;}.cls-4{fill:#383838;}.cls-5{fill:#fe697d;}.cls-14,.cls-6{fill:#8ce08c;}.cls-7{stroke:#2b7c63;stroke-width:3.65px;}.cls-8{fill:#2b7c63;}.cls-9{fill:#c2c2c2;}.cls-10{fill:#fefddb;}.cls-10,.cls-11,.cls-12,.cls-14{fill-rule:evenodd;}.cls-11,.cls-12{fill:#9ef5ee;}.cls-12{opacity:0.75;}.cls-13{stroke:#9ef5ee;stroke-width:5.14px;}</style></defs><title>watermelon-pack-illustration-03</title><g id="Layer_2" data-name="Layer 2"><g id="vector"><path class="cls-1" d="M656.23,195.1c41.82,73.61,26.69,171.87,2.89,265S602.84,641.36,541.3,672.3c-61.54,31.11-152.15,5.1-236-35.36-83.81-40.29-160.83-95-203.33-185.13-42.5-89.94-50.49-215.4,7.48-292.75C167.63,81.88,291.57,52.64,403.26,62.67,515,72.53,614.23,121.49,656.23,195.1Z"/><path class="cls-2" d="M256.34,162,1.53,401.59l378.61,152Z"/><path class="cls-3" d="M336.42,568.19c-10,17-39.39,71.54-44.28,77.6S120.86,754.85,120.86,754.85c4.19,10.25,11.65,62.92-17.25,74.34-5.12-17.48-26.56-94.61-26.56-94.61l22.6-5.83L202.89,605s7.2-165.84,28.87-186.12C253,430.31,336.42,568.19,336.42,568.19Z"/><path class="cls-4" d="M245.57,676.75c25.37-16.15,44.94-28.94,46.57-31,4.89-6.06,34.26-60.59,44.28-77.6,0,0-83.45-137.88-104.66-149.3-14.42,13.49-22.43,91.42-26.18,142.07C214,604.34,226.68,646.54,245.57,676.75Z"/><polygon class="cls-5" points="310.75 169.12 164.57 384.53 399.99 426.58 310.75 169.12"/><circle class="cls-6" cx="334.8" cy="104.98" r="40.48"/><path class="cls-7" d="M362.77,97.58c.56-4.14-.56-7.71-2.49-8s-3.94,2.89-4.49,7,.56,7.71,2.48,8S362.21,101.72,362.77,97.58Z"/><circle class="cls-8" cx="334.8" cy="25.31" r="25.31"/><path class="cls-9" d="M231.76,418.89c18,11.29,133.86,42.57,164.64,46.16,13.33,22.06,133.86,293.88,133.86,293.88,13.85-10.77,64.62-25.64,81.55-5.64-16.41,10.77-99.5,67.19-99.5,67.19S234.32,460.44,231.76,418.89Z"/><polygon class="cls-10" points="596.05 332.5 512.71 332.5 583.83 136.99 667.17 136.99 596.05 332.5"/><polygon class="cls-11" points="482.43 104.98 470.78 136.99 509.46 136.99 521.11 104.98 482.43 104.98"/><polygon class="cls-12" points="618.42 214.38 598.7 268.61 682.04 268.61 701.77 214.38 618.42 214.38"/><circle class="cls-5" cx="521.11" cy="104.98" r="10.09"/><path class="cls-13" d="M335.13,238.51a111.72,111.72,0,0,1-94.79,34.35"/><path class="cls-13" d="M309.55,410.42a111.44,111.44,0,0,1,53.17-91.36"/><path class="cls-13" d="M344.5,266.5a111.66,111.66,0,0,1-121.93,32.55"/><path class="cls-14" d="M220.37,323.49a34.32,34.32,0,1,1,34.31,34.32A34.31,34.31,0,0,1,220.37,323.49Z"/><polyline class="cls-13" points="627.6 92.31 605.77 114.14 598.7 104.79"/><polyline class="cls-13" points="617.33 134.55 595.5 156.38 588.43 147.03"/><polyline class="cls-13" points="597.21 181.18 575.38 203.01 568.31 193.65"/><path class="cls-14" d="M488.43,240.88a34.32,34.32,0,1,1,34.31,34.32A34.31,34.31,0,0,1,488.43,240.88Z"/></g></g></svg>