<svg xmlns="http://www.w3.org/2000/svg" viewBox="0 0 834.04 837"><defs><style>.cls-1{fill:#f7f7f7;}.cls-2{fill:#fefddb;}.cls-3{fill:#fff;}.cls-10,.cls-3{stroke:#c2c2c2;stroke-miterlimit:10;stroke-width:3px;}.cls-11,.cls-4{fill:#8ce08c;}.cls-10,.cls-5,.cls-6,.cls-8,.cls-9{fill:none;}.cls-5{stroke:#2b7c63;stroke-width:3.65px;}.cls-5,.cls-6,.cls-8,.cls-9{stroke-linecap:round;stroke-linejoin:round;}.cls-6,.cls-8{stroke:#9ef5ee;}.cls-6{stroke-width:7px;}.cls-7{fill:#fe697d;}.cls-8{stroke-width:5.14px;}.cls-9{stroke:#fff;stroke-width:16.23px;}.cls-11{fill-rule:evenodd;}.cls-12{fill:#2b7c63;}</style></defs><title>watermelon-pack-illustration-20</title><g id="Layer_2" data-name="Layer 2"><g id="vector"><path class="cls-1" d="M750.43,57.58C825.11,121.4,842,254.25,831,376.24c-10.87,122-49.52,232.89-124.2,321.06C631.87,785.67,521,851.09,426.35,834.38c-94.41-16.5-172.11-115.14-246.19-203.51C105.88,542.71,35.43,465,10.27,361.94-14.89,259.08,5.44,130.86,79.52,67.25,153.59,3.44,281.82,4,412.26,1.62S675.55-6,750.43,57.58Z"/><rect class="cls-2" x="104.45" width="650" height="785"/><circle class="cls-3" cx="429.45" cy="341.48" r="232.5"/><circle class="cls-4" cx="430.42" cy="209.85" r="64.14"/><path class="cls-5" d="M428.12,197.39c-.77-6.57-3.86-11.62-6.92-11.27s-4.93,6-4.17,12.55,3.86,11.63,6.92,11.27S428.88,204,428.12,197.39Z"/><line class="cls-6" x1="208.45" y1="644.48" x2="650.45" y2="644.48"/><line class="cls-6" x1="327.01" y1="714.48" x2="531.89" y2="714.48"/><path class="cls-7" d="M419.76,296.55c-90.21,0-119.09,134.71-123.89,235.24a232.57,232.57,0,0,0,256.86,6.83C546.55,437.34,515.09,296.54,419.76,296.55Z"/><path class="cls-8" d="M409.05,573.1a59.5,59.5,0,1,1,114.5-22.71c0,1.27,0,2.54-.12,3.8"/><path class="cls-8" d="M307.57,437.26a59.5,59.5,0,0,1,22.12,114.28"/><circle class="cls-8" cx="452.26" cy="406.03" r="59.49"/><path class="cls-8" d="M400.55,298.74a59.5,59.5,0,0,1-59.27,54.31c-1.42,0-2.83-.05-4.22-.14"/><path class="cls-9" d="M336.28,473.72c5.57-31.53,14-62.43,26.29-88.37"/><circle class="cls-10" cx="429.45" cy="341.48" r="232.5"/><path class="cls-11" d="M260.78,536.27A37.72,37.72,0,1,1,298.5,574,37.72,37.72,0,0,1,260.78,536.27Z"/><path class="cls-11" d="M578.78,216.27A37.72,37.72,0,1,1,616.5,254,37.72,37.72,0,0,1,578.78,216.27Z"/><circle class="cls-12" cx="376.42" cy="110.62" r="40.11"/></g></g></svg>