<svg xmlns="http://www.w3.org/2000/svg" viewBox="0 0 1045.08 777.4"><defs><style>.cls-1{fill:#f7f7f7;}.cls-10,.cls-13,.cls-14,.cls-15,.cls-2,.cls-5{fill:none;stroke-linecap:round;}.cls-2{stroke:#e5e5e5;stroke-width:3.06px;}.cls-10,.cls-13,.cls-14,.cls-15,.cls-2{stroke-linejoin:round;}.cls-3{fill:#ededed;}.cls-4{fill:#9ef5ee;}.cls-14,.cls-5{stroke:#9ef5ee;}.cls-5{stroke-miterlimit:10;stroke-width:8px;}.cls-6{fill:#c2c2c2;}.cls-7{fill:#777;}.cls-8{fill:#383838;}.cls-9{fill:#8ce08c;fill-rule:evenodd;}.cls-10,.cls-13{stroke:#2b7c63;}.cls-10{stroke-width:2.78px;}.cls-11{fill:#fe697d;}.cls-12{fill:#fff;}.cls-13{stroke-width:4px;}.cls-14{stroke-width:5.14px;}.cls-15{stroke:#fff;stroke-width:16.23px;}</style></defs><title>watermelon-pack-illustration-04</title><g id="Layer_2" data-name="Layer 2"><g id="vector"><path class="cls-1" d="M716,172.9c81.93,63.76,171.4,160.26,168.32,260.36S785.43,637.07,670.75,686.6c-114.84,49.54-248.36,44.91-332.18-14.22-83.82-59.31-117.93-172.95-122.73-271.17-5-98.39,19.2-181.35,69.08-237.74,49.88-56.56,125.47-86.73,200.2-86C560,77.94,634.07,109,716,172.9Z"/><path class="cls-2" d="M479.62,212.73,200.85,1.53l-86.6,398.68Z"/><rect class="cls-3" x="282.06" y="134.56" width="586.21" height="309.46" rx="10.1"/><rect class="cls-4" x="64.11" y="456.21" width="148.67" height="302.33" rx="24.08" transform="translate(375.74 31.39) rotate(35.23)"/><line class="cls-5" x1="129.42" y1="749.01" x2="421.87" y2="334.91"/><circle class="cls-6" cx="121.58" cy="763.47" r="13.93"/><path class="cls-7" d="M319.71,686C344.58,671.82,541,582.69,541,582.69L466.58,367.23c-3.08,11.88-41.17,181.63-41.17,181.63l-120,82Z"/><path class="cls-7" d="M316.24,659.37c4.69,13.16,14.75,46.55-12.9,79.64l-33.89-95.07,36.64-13.06Z"/><path class="cls-8" d="M470.12,615C509.47,597,541,582.69,541,582.69L466.58,367.23c-2,7.78-19.06,83.29-30.57,134.47C451.53,533.35,465.54,572.85,470.12,615Z"/><path class="cls-9" d="M604.18,399a25.08,25.08,0,1,1,25.08,25.07A25.07,25.07,0,0,1,604.18,399Z"/><path class="cls-9" d="M387.14,328a25.08,25.08,0,1,1,25.07,25.07A25.06,25.06,0,0,1,387.14,328Z"/><path class="cls-9" d="M613.14,94.33a36.91,36.91,0,1,0-36.9,36.91A36.91,36.91,0,0,0,613.14,94.33Z"/><path class="cls-10" d="M601.41,86.7c0-3.19-1.21-5.77-2.69-5.77S596,83.51,596,86.7s1.2,5.76,2.68,5.76S601.41,89.88,601.41,86.7Z"/><path class="cls-11" d="M572.8,155.47C646.34,168.09,609.09,358.3,604.56,366c-10,16.93-127.15,4.31-140.1-15.61C459.22,342.32,491,141.44,572.8,155.47Z"/><path class="cls-6" d="M466.58,366.88v.35L541,743.91l47.52-5.2s3.41-291.26,4.82-352.89C562.87,392.64,483.63,382.43,466.58,366.88Z"/><path class="cls-6" d="M571.19,731.18c14,0,48.8,1.74,70.69,38.89H541V731.18Z"/><rect class="cls-3" x="871.27" y="134.56" width="173.81" height="309.46" rx="10.03"/><path class="cls-12" d="M386.1,207.22h7.47c.06,2.69,2.64,4.89,6.08,4.89s5.54-1.72,5.54-4.35c0-2-1.5-3.5-4.68-4.47L396,202c-8.12-2.15-9.57-7-9.57-10.38,0-6.62,5.7-11,12.8-11s12.37,4.25,12.37,11.3h-7.47c0-2.64-1.83-4.68-5.06-4.68-2.9,0-5.11,1.77-5.11,4.25,0,.91.27,2.85,4.14,3.93l4.14,1.18c5.6,1.56,10.49,4.52,10.49,10.81,0,7.37-6.29,11.24-13.28,11.24C391.53,218.62,386.1,213.78,386.1,207.22Z"/><path class="cls-12" d="M449.73,181.08l-14.41,20.33v16.73h-7.48V201.3l-14.36-20.22h8.93l9.14,14.09,9.31-14.09Z"/><path class="cls-12" d="M454.15,181.08h14.52c10.65,0,16.84,8.07,16.84,18.61s-6.19,18.45-16.84,18.45H454.15Zm14.52,30.44c6.19,0,9.36-5.48,9.36-11.83s-3.17-12-9.36-12h-7.05v23.83Z"/><path class="cls-12" d="M671.7,181.08h7.48v30.44h14v6.62H671.7Z"/><path class="cls-12" d="M727.59,181.08v37.06h-7.48V203.08H706.29v15.06h-7.48V181.08h7.48v15.27h13.82V181.08Z"/><path class="cls-12" d="M746.63,204.85h-2.52v13.29h-7.48V181.08h14.79c8.5,0,12.16,6,12.16,12.1,0,5.27-2.75,10-9,11.3l9.62,13.66h-8.76Zm-2.52-6h6c4.19,0,6-2.53,6-5.49s-1.89-5.65-5.38-5.65h-6.56Z"/><rect class="cls-12" x="884.4" y="180.05" width="146.89" height="9.11"/><rect class="cls-12" x="884.4" y="199.93" width="73.44" height="9.11"/><rect class="cls-12" x="884.4" y="238.83" width="146.89" height="9.11"/><rect class="cls-12" x="884.4" y="258.72" width="73.44" height="9.11"/><rect class="cls-12" x="884.4" y="297.62" width="146.89" height="9.11"/><rect class="cls-12" x="884.4" y="317.5" width="73.44" height="9.11"/><polygon class="cls-13" points="540.95 71.92 518.39 12.66 478.35 61.83 540.95 71.92"/><path class="cls-14" d="M616.16,223.81a31.67,31.67,0,1,1-14.26-47.49"/><path class="cls-14" d="M515.74,185a31.67,31.67,0,1,1-28.61,56.41"/><circle class="cls-14" cx="558.48" cy="285.83" r="31.67"/><path class="cls-14" d="M474.34,283.81a31.67,31.67,0,1,1-10.43,61.59"/><path class="cls-14" d="M551.76,373.39a31.68,31.68,0,0,1,57.43-26.32"/><path class="cls-15" d="M584.62,187.86c9.57,17.76,13.37,43.06,14,69.31"/></g></g></svg>