<svg xmlns="http://www.w3.org/2000/svg" viewBox="0 0 952.53 751.85"><defs><style>.cls-1{fill:#f7f7f7;}.cls-10,.cls-13,.cls-15,.cls-2,.cls-5{fill:none;stroke-linecap:round;stroke-linejoin:round;}.cls-2{stroke:#e5e5e5;stroke-width:4.13px;}.cls-12,.cls-3{fill:#777;}.cls-10,.cls-11,.cls-13,.cls-14,.cls-3,.cls-9{fill-rule:evenodd;}.cls-11,.cls-4{fill:#8ce08c;}.cls-13,.cls-5{stroke:#2b7c63;}.cls-5{stroke-width:6.21px;}.cls-6{fill:#2b7c63;}.cls-7{fill:#fe697d;}.cls-8,.cls-9{fill:#9ef5ee;}.cls-10{stroke:#9ef5ee;stroke-width:6.94px;}.cls-13{stroke-width:6.06px;}.cls-14{fill:#76ce76;}.cls-15{stroke:#fff;stroke-width:16.23px;}</style></defs><title>watermelon-pack-illustration-11</title><g id="Layer_2" data-name="Layer 2"><g id="vector"><path class="cls-1" d="M755.94,144.39c40.78,82.31-13.78,209.69-52.51,325.34S642,689.28,577.91,728C514,766.75,408.63,740.5,323.71,691.89,239,643.29,174.55,572.34,125.2,466.37c-49.54-106-83.8-246.93-28.49-332.59C152.2,48.3,297.27,18.13,438.06,21.67,578.66,25,715.16,62.27,755.94,144.39Z"/><path class="cls-2" d="M299.23,48.22,2.07,415.65l534.7,134Z"/><path class="cls-3" d="M356.12,620.34A123,123,0,0,0,224.61,734.1l245.27,17.75A123,123,0,0,0,356.12,620.34Z"/><circle class="cls-4" cx="428.76" cy="173.32" r="68.86"/><path class="cls-5" d="M449.63,159.63c2.86-6.51,2.72-12.87-.31-14.19s-7.8,2.87-10.66,9.38S436,167.68,439,169,446.78,166.14,449.63,159.63Z"/><path class="cls-5" d="M403.78,144c2.86-6.51,2.72-12.87-.31-14.19s-7.8,2.87-10.66,9.38-2.71,12.86.32,14.19S400.93,150.46,403.78,144Z"/><circle class="cls-6" cx="466.19" cy="43.07" r="43.06"/><polygon class="cls-7" points="230.75 326.31 345.6 699.23 565.84 373.6 230.75 326.31"/><rect class="cls-8" x="32.47" y="77.36" width="204.03" height="110.8"/><polygon class="cls-9" points="190.39 188.16 236.5 242.21 236.5 188.16 190.39 188.16"/><polygon class="cls-9" points="636.14 87.5 590.03 141.54 590.03 87.5 636.14 87.5"/><rect class="cls-8" x="590.2" y="13.18" width="204.03" height="74.47" transform="translate(1384.43 100.84) rotate(-180)"/><path class="cls-10" d="M313.88,596.22a170.83,170.83,0,0,1,86.44-23.33,173,173,0,0,1,29.07,2.45"/><path class="cls-10" d="M298.51,547.07a171.91,171.91,0,0,1,157.26-10.73"/><path class="cls-10" d="M489.79,486A171.73,171.73,0,0,1,348.93,343"/><path class="cls-11" d="M223.05,559.29a46.37,46.37,0,1,1,46.37,46.37A46.36,46.36,0,0,1,223.05,559.29Z"/><ellipse class="cls-12" cx="778.64" cy="493.68" rx="99.99" ry="22.29" transform="translate(-143.12 512.73) rotate(-33.56)"/><path class="cls-13" d="M791.32,510.13c-1.36-51.35,58.1-209.43,109.44-250"/><ellipse class="cls-6" cx="881.84" cy="243.95" rx="10.81" ry="36.48"/><ellipse class="cls-6" cx="918.32" cy="268.27" rx="36.48" ry="10.81" transform="translate(-34.6 353.21) rotate(-21.38)"/><ellipse class="cls-6" cx="902.11" cy="293.94" rx="36.48" ry="10.81" transform="translate(-38.61 170.48) rotate(-10.57)"/><ellipse class="cls-6" cx="886.62" cy="324.26" rx="36.48" ry="10.81" transform="translate(-9.55 27.41) rotate(-1.76)"/><ellipse class="cls-6" cx="874.66" cy="350.18" rx="36.48" ry="10.81"/><ellipse class="cls-6" cx="860.84" cy="379.19" rx="36.48" ry="10.81"/><ellipse class="cls-6" cx="858.87" cy="265.57" rx="10.81" ry="36.48" transform="translate(-34.14 162.07) rotate(-10.57)"/><ellipse class="cls-6" cx="835.9" cy="293.94" rx="10.81" ry="36.48" transform="translate(-49.63 324.93) rotate(-21.38)"/><ellipse class="cls-6" cx="816.99" cy="323.67" rx="10.81" ry="36.48" transform="translate(-35.9 535.35) rotate(-35.55)"/><ellipse class="cls-6" cx="799.42" cy="356.09" rx="10.81" ry="36.48" transform="translate(-7.98 693.7) rotate(-46.7)"/><path class="cls-10" d="M784.21,512.84C780.58,473.74,710.86,380.41,664,363"/><polygon class="cls-9" points="673.59 353.63 705.9 307.69 649.96 302.68 673.59 353.63"/><polygon class="cls-9" points="711.57 381.15 764.71 362.98 722.4 326.04 711.57 381.15"/><polygon class="cls-9" points="666.81 448.44 685.49 395.47 630.28 405.77 666.81 448.44"/><path class="cls-14" d="M351.41,252.58A46.37,46.37,0,1,1,397.78,299,46.37,46.37,0,0,1,351.41,252.58Z"/><line class="cls-15" x1="387.81" y1="378.63" x2="307.04" y2="367.23"/></g></g></svg>