<svg xmlns="http://www.w3.org/2000/svg" viewBox="0 0 1018.9 723.2"><defs><style>.cls-1{fill:#f7f7f7;}.cls-2{fill:#8ce08c;}.cls-11,.cls-12,.cls-13,.cls-2,.cls-5,.cls-6{fill-rule:evenodd;}.cls-10,.cls-3,.cls-4,.cls-7,.cls-8,.cls-9{fill:none;stroke-linecap:round;stroke-linejoin:round;}.cls-3{stroke:#909090;}.cls-3,.cls-4{stroke-width:3.06px;}.cls-4{stroke:#e5e5e5;}.cls-5{fill:#777;}.cls-6{fill:#fe697d;}.cls-7,.cls-8{stroke:#2b7c63;}.cls-7{stroke-width:3.65px;}.cls-8{stroke-width:6.1px;}.cls-9{stroke:#9ef5ee;stroke-width:5.14px;}.cls-10{stroke:#fff;stroke-width:16.23px;}.cls-11{fill:#383838;}.cls-12{fill:#c2c2c2;}.cls-13{fill:#9ef5ee;}</style></defs><title>watermelon-pack-illustration-01</title><g id="Layer_2" data-name="Layer 2"><g id="Layer_1-2" data-name="Layer 1"><path class="cls-1" d="M718.55,243.72c58.72,71.18,112.84,148.36,108.69,230.61s-66.72,169.57-146,199.08c-79.48,29.52-175.72,1.39-251.82-44.58C353.12,583,297.16,519.37,271.94,439.89c-25.21-79.64-19.52-174.95,29.21-243.83C349.73,127.34,441.51,85.22,519,96.6S660,172.69,718.55,243.72Z"/><path class="cls-2" d="M627.12,319.09a34.32,34.32,0,1,1,34.32,34.32A34.32,34.32,0,0,1,627.12,319.09Z"/><path class="cls-3" d="M202.23,484.37c-.43-11.89-16.6-61.58-45.45-112.72"/><path class="cls-3" d="M207,484.42c0-67.07,50.36-199.32,92.68-227.52"/><path class="cls-4" d="M406.67,24,151.86,263.54l378.61,152Z"/><path class="cls-4" d="M550.23,399.85c0-129,104.57-233.57,233.57-233.57s233.57,104.57,233.57,233.57S912.8,633.42,783.8,633.42,550.23,528.85,550.23,399.85Z"/><path class="cls-5" d="M456.81,357.64C443.73,395,415.87,489.46,424.49,497.45c32.05,29.74,245.81,46.39,287.41,41.47-.43,15.07,29.14,71,51,69.06-.9-23.24-4.78-126.18-4.78-126.18L543.87,457.27l-15.56-80.5C498.44,374,471.3,367.27,456.81,357.64Z"/><path class="cls-6" d="M461,342.87c-3.5-45.41,24-190,105.67-183.41C622.79,164,647,304.88,634.33,350.73,594.4,375.56,488.91,367.76,461,342.87Z"/><path class="cls-2" d="M508.6,64.53A48.42,48.42,0,1,1,557,113,48.42,48.42,0,0,1,508.6,64.53Z"/><path class="cls-7" d="M524,54.52c0-4.18,1.58-7.57,3.52-7.57S531,50.34,531,54.52s-1.57,7.56-3.52,7.56S524,58.7,524,54.52Z"/><path class="cls-8" d="M616.65,92.21A190.74,190.74,0,0,1,534.21,3.05"/><path class="cls-2" d="M367.31,307.24a34.32,34.32,0,1,1,34.32,34.31A34.33,34.33,0,0,1,367.31,307.24Z"/><path class="cls-9" d="M630.91,260.23a35.72,35.72,0,0,1-23.35-67.52"/><path class="cls-9" d="M465.39,346.33a28.4,28.4,0,1,1,53.87,16.78"/><path class="cls-9" d="M573.67,315.05a25.79,25.79,0,1,1,25.79,25.79A25.79,25.79,0,0,1,573.67,315.05Z"/><path class="cls-9" d="M509.21,273.19A25.79,25.79,0,1,1,535,299,25.79,25.79,0,0,1,509.21,273.19Z"/><path class="cls-9" d="M539.72,163a25.79,25.79,0,1,1-36.24,29.32"/><path class="cls-10" d="M495.22,256.8c1.73-12.14,10.84-37.09,24.94-53.35"/><path class="cls-11" d="M456.81,357.64c-3.87,11.05-9,27.23-14.16,44.56,39.58,35.06,78.34,82,92.78,125,21.42,3,43.39,5.35,64.88,7.32l-17.5-72.82-38.94-4.46-15.56-80.5C498.44,374,471.3,367.27,456.81,357.64Z"/><path class="cls-12" d="M634.53,365c-25.3,12.42-69.63,15.45-109.13,11.47,9.33,53.31,53.29,241.63,70.38,288.82-16.25,7.12-68,39.8-68,56.18,16.94,0,129.9.85,129.9.85C652,689.7,636.12,428.6,634.53,365Z"/><path class="cls-6" d="M162.5,484.69H249V721.2H162.5Z"/><path class="cls-13" d="M236,231.88a30.61,30.61,0,1,1,30.61,30.61A30.6,30.6,0,0,1,236,231.88Z"/><path class="cls-13" d="M225,333.18a22.53,22.53,0,1,1,22.53,22.53A22.53,22.53,0,0,1,225,333.18Z"/><path class="cls-13" d="M200.78,430.09a40,40,0,1,1,40,40A40,40,0,0,1,200.78,430.09Z"/><path class="cls-13" d="M297.09,289.46a9.89,9.89,0,1,1,9.89,9.89A9.89,9.89,0,0,1,297.09,289.46Z"/><path class="cls-13" d="M117.83,357.11,67,348.84l32.6-39.92L132.16,269l18.27,48.19,18.28,48.19Z"/><path class="cls-13" d="M137.05,432.65l-22.21,9.59,2.8-24,2.79-24,19.41,14.44,19.41,14.43Z"/><path class="cls-3" d="M1.53,721.67H931.35"/></g></g></svg>