<svg xmlns="http://www.w3.org/2000/svg" viewBox="0 0 902.8 767.94"><defs><style>.cls-1,.cls-11,.cls-15,.cls-3,.cls-5,.cls-9{fill:none;stroke-linecap:round;stroke-linejoin:round;}.cls-1,.cls-15,.cls-5{stroke:#9ef5ee;}.cls-1,.cls-15{stroke-width:6.94px;}.cls-1,.cls-13,.cls-17,.cls-4,.cls-5,.cls-8,.cls-9{fill-rule:evenodd;}.cls-2{fill:#f7f7f7;}.cls-3{stroke:#e5e5e5;stroke-width:4.36px;}.cls-16,.cls-4{fill:#9ef5ee;}.cls-5{stroke-width:5px;}.cls-6{fill:#fe697d;}.cls-7,.cls-8{fill:#777;}.cls-9{stroke:#fff;stroke-width:16.23px;}.cls-10,.cls-13{fill:#8ce08c;}.cls-11{stroke:#2b7c63;stroke-width:4.52px;}.cls-12{fill:#2b7c63;}.cls-14,.cls-17{fill:#c2c2c2;}</style></defs><title>watermelon-pack-illustration-16</title><g id="Layer_2" data-name="Layer 2"><g id="vector"><path class="cls-1" d="M256.31,683.67c1.74-52.15-115.86-230.6-184.09-258.51"/><path class="cls-2" d="M685.44,151c65.3,23.53,118.89,92.15,128.73,166s-23.94,152.66-68.35,221.41S646.35,665.89,578.66,691.29,430.39,708.71,365,677.2,249.4,590.36,213.76,527.33s-56.51-133.78-40.95-194,67.82-109.71,122.74-135,112.9-26.47,180.32-37.77S620.15,127.46,685.44,151Z"/><path class="cls-3" d="M641,142.86,293.11,508.32l607.5,118.4Z"/><path class="cls-1" d="M244.61,700.37c-37.32-103.11,46.52-378.64,119-448.31"/><path class="cls-4" d="M314.14,323.17c-13.83-7-69.89-122.17-46.95-139.28,16.43-12.26,72.77,62.4,57.61,122.4C320.67,313.93,314.14,323.17,314.14,323.17Z"/><path class="cls-4" d="M108.59,449c-6.8,9.35-98.1,37.2-108,18.32C-6.54,453.76,55,421,97.4,439.14,102.54,443.08,108.59,449,108.59,449Z"/><path class="cls-4" d="M155,497.88C147.4,506.56,53.89,525.76,45.78,506c-5.82-14.13,58.51-41,99-19C149.57,491.45,155,497.88,155,497.88Z"/><path class="cls-4" d="M192.29,547.16c-8.48,7.86-103.45,17.48-109.52-3-4.36-14.65,62.37-34.87,100.45-8.83C187.5,540.21,192.29,547.16,192.29,547.16Z"/><path class="cls-4" d="M224.5,599.87c-9.21,7-104.67,7.27-108.71-13.68-2.9-15,65.49-28.59,100.84,1C220.41,592.49,224.5,599.87,224.5,599.87Z"/><path class="cls-4" d="M330,299.11c13,8.49,140.74-.17,144.17-28.58,2.46-20.36-90.34-32.07-134.84,10.93C334.8,288.85,330,299.11,330,299.11Z"/><path class="cls-4" d="M290.65,383.34c13.73,7.23,140.11-13.39,140.86-42,.53-20.49-92.95-23.45-133.22,23.55C294.44,372.67,290.65,383.34,290.65,383.34Z"/><path class="cls-4" d="M123.77,463.84c7.65-7.55,20.53-95.33,1.79-101.82-13.42-4.65-35,56.46-12.38,92.91C117.51,459.1,123.77,463.84,123.77,463.84Z"/><path class="cls-4" d="M168.68,515c9.12-5.7,40.85-88.55,24-99-12.09-7.47-46.46,47.46-32.37,88C163.61,509,168.68,515,168.68,515Z"/><path class="cls-4" d="M206.28,567.65c9.36-5.28,44.76-86.63,28.37-97.8-11.73-8-48.52,45.35-36.25,86.43A138,138,0,0,0,206.28,567.65Z"/><path class="cls-4" d="M261.21,470.1c14.31,6,138.35-25.82,136.55-54.38-1.3-20.46-94.67-15.07-130.59,35.32C264,459.14,261.21,470.1,261.21,470.1Z"/><path class="cls-4" d="M280,408.9c-15-4-93.75-105-74.87-126.48,13.52-15.41,84.15,45.91,81.8,107.75C284.44,398.5,280,408.9,280,408.9Z"/><path class="cls-4" d="M253.23,501.17c-15.34-2.34-104.73-94-88.33-117.48,11.75-16.8,88.69,36.38,93.15,98.11C256.53,490.34,253.23,501.17,253.23,501.17Z"/><path class="cls-5" d="M424.72,191.34c-2.23-28.42-10.1-89.77-25.66-119.4"/><path class="cls-5" d="M428.81,191.34c0-7,39.94-72.95,85.71-106.18"/><rect class="cls-6" x="403.49" y="187.06" width="48.09" height="130.35"/><path class="cls-7" d="M512,729c-14,0-48.8,1.74-70.69,38.9H542.22V729Z"/><path class="cls-8" d="M706.59,581.69c0-74.29-174.65-147.9-234.9-147.9-8.7,0-9.82,0-9.82,4.77S497.79,742.5,497.79,742.5h99.07c-.56-6.39-7-80.32-7-80.32C596.74,662.18,706.59,694.73,706.59,581.69Z"/><rect class="cls-7" x="536.76" y="742.5" width="60.1" height="25.44"/><circle class="cls-6" cx="647.2" cy="315.92" r="99.33"/><path class="cls-9" d="M587.52,261.65a98.9,98.9,0,0,0-16.12,54.27,100.16,100.16,0,0,0,1.23,15.69"/><circle class="cls-10" cx="644.24" cy="130.78" r="50.1"/><path class="cls-11" d="M609.63,121.62c-.69-5.13.68-9.54,3.07-9.86s4.88,3.57,5.56,8.7-.69,9.54-3.07,9.86S610.31,126.74,609.63,121.62Z"/><polygon class="cls-12" points="626.12 0 594.14 69.02 669.9 62.2 626.12 0"/><path class="cls-13" d="M630.05,292.8a34.32,34.32,0,1,1,34.32,34.32A34.33,34.33,0,0,1,630.05,292.8Z"/><path class="cls-13" d="M387.76,240.07a34.32,34.32,0,1,1,34.32,34.32A34.32,34.32,0,0,1,387.76,240.07Z"/><path class="cls-4" d="M474.25,147.5A11.54,11.54,0,1,1,485.78,159,11.54,11.54,0,0,1,474.25,147.5Z"/><path class="cls-4" d="M455.35,98.27a11.54,11.54,0,1,1,11.54,11.53A11.54,11.54,0,0,1,455.35,98.27Z"/><path class="cls-4" d="M513.54,66.77a11.54,11.54,0,1,1,11.53,11.54A11.53,11.53,0,0,1,513.54,66.77Z"/><path class="cls-4" d="M512.23,102.65a11.54,11.54,0,1,1,11.54,11.54A11.54,11.54,0,0,1,512.23,102.65Z"/><path class="cls-14" d="M596.19,729c-14,0-48.8,1.74-70.69,38.9H626.43V729Z"/><path class="cls-4" d="M391.19,57.21,379.45,73.13,371.53,55l-7.92-18.13,19.66,2.21,19.67,2.21Z"/><path class="cls-4" d="M437.68,68.73,450.22,84,430.7,87.24l-19.52,3.21,7-18.51,7-18.51Z"/><path class="cls-4" d="M383.27,103.73l19,5.46-14.24,13.74-14.23,13.74L369,117.47l-4.78-19.2Z"/><path class="cls-15" d="M643.83,284.93c-11-5-53.36-44.18-71.78-78.16"/><path class="cls-16" d="M576.94,213.34c-2.2-3.43,2.14-28.65,7.29-30.48s1.4,37.77-.8,37.95S576.94,213.34,576.94,213.34Z"/><path class="cls-16" d="M569.55,204c-2.63-3.11-28-6.37-31.28-2s35.68,12.45,36.51,10.4S569.55,204,569.55,204Z"/><path class="cls-16" d="M584.49,226.88c-2.63-3.11-28-6.37-31.28-2s35.68,12.46,36.5,10.4S584.49,226.88,584.49,226.88Z"/><path class="cls-16" d="M603.92,249.76c-2.63-3.12-28-6.38-31.28-2s35.69,12.46,36.51,10.4S603.92,249.76,603.92,249.76Z"/><path class="cls-16" d="M595.24,236.3c-2.2-3.43,2.15-28.65,7.29-30.49s1.41,37.77-.8,37.95S595.24,236.3,595.24,236.3Z"/><path class="cls-16" d="M613.2,257.83c-2.2-3.43,2.14-28.65,7.28-30.49s1.41,37.77-.79,38S613.2,257.83,613.2,257.83Z"/><path class="cls-17" d="M790.8,581.69c0-74.29-174.65-147.9-234.9-147.9-8.7,0-9.82,0-9.82,4.77S582,742.5,582,742.5h99.07c-.56-6.39-7-80.32-7-80.32C681,662.18,790.8,694.73,790.8,581.69Z"/><rect class="cls-14" x="620.97" y="742.5" width="60.1" height="25.44"/><polygon class="cls-8" points="250.08 672.62 244.88 672.62 175.78 672.62 195.21 767.93 244.88 767.93 250.08 767.93 299.74 767.93 319.18 672.62 250.08 672.62"/></g></g></svg>