<svg xmlns="http://www.w3.org/2000/svg" viewBox="0 0 611.87 624.32"><defs><style>.cls-1{fill:#f7f7f7;}.cls-2,.cls-6,.cls-9{fill:none;stroke-linecap:round;stroke-linejoin:round;}.cls-2{stroke:#e5e5e5;stroke-width:4.36px;}.cls-3{fill:#383838;}.cls-4{fill:#fe697d;}.cls-5,.cls-8{fill:#8ce08c;}.cls-6{stroke:#2b7c63;stroke-width:4.49px;}.cls-7{fill:#c2c2c2;}.cls-8{fill-rule:evenodd;}.cls-9{stroke:#9ef5ee;stroke-width:5.14px;}.cls-10{fill:#777;}</style></defs><title>watermelon-pack-illustration-19</title><g id="Layer_2" data-name="Layer 2"><g id="vector"><path class="cls-1" d="M516.64,135.36c35.41,62.25,49.38,119.38,50.07,177.06s-12,116.06-47.58,171.11S425.34,590.46,347.74,609.68s-174.43,6-226-49.24S63.62,408.56,78.14,326.25,128.08,176,179.68,113.78,299.19-5,361.58.36,481.09,73.12,516.64,135.36Z"/><path class="cls-2" d="M350.05,26.92,2.18,392.38l607.51,118.4Z"/><rect class="cls-3" x="125.85" y="44.55" width="59.07" height="110.53"/><polygon class="cls-4" points="151.22 195.71 321.03 547.03 489.61 191.89 151.22 195.71"/><circle class="cls-5" cx="319.4" cy="96.87" r="53.16"/><path class="cls-6" d="M298.92,23.59a99.43,99.43,0,0,0,89.2,68.72"/><path class="cls-6" d="M321.15,101.77c-.73-5.44.73-10.13,3.26-10.47s5.18,3.8,5.91,9.24-.73,10.12-3.27,10.46S321.88,107.21,321.15,101.77Z"/><path class="cls-7" d="M464.54,543.78c-6,12.63-19.36,44.83,4.8,80.54l43.31-91.16-35.13-16.69Z"/><path class="cls-8" d="M408.43,279.8a42.33,42.33,0,1,1,42.32,42.33A42.32,42.32,0,0,1,408.43,279.8Z"/><path class="cls-8" d="M78,139.8a42.33,42.33,0,1,1,42.33,42.33A42.33,42.33,0,0,1,78,139.8Z"/><path class="cls-9" d="M344.9,193.93a138.94,138.94,0,0,0,71,153.24"/><path class="cls-9" d="M320.42,532.22a138.77,138.77,0,0,0-100.8-195"/><path class="cls-9" d="M202.87,302.58a138.85,138.85,0,0,0,106.5-108.65"/><path class="cls-10" d="M193.51,548.84c-.54,14-3.62,48.7-41.58,69.14l3.88-100.85,38.86,1.49Z"/><path class="cls-10" d="M502.81,446.53C459.47,315.54,210,506,189.66,521.18c-23.1,17.24-5.27,40.8,4.78,42.37S533.08,538,502.81,446.53Z"/><path class="cls-7" d="M165,424.05C119.77,554.39,433.67,554.87,459,555.19c28.82.37,29-29.18,22-36.54S196.6,333,165,424.05Z"/></g></g></svg>