<svg xmlns="http://www.w3.org/2000/svg" viewBox="0 0 965.21 782.52"><defs><style>.cls-1{fill:#f7f7f7;}.cls-11,.cls-15,.cls-16,.cls-2,.cls-7{fill:none;stroke-linecap:round;stroke-linejoin:round;}.cls-2{stroke:#e5e5e5;stroke-width:3.06px;}.cls-3{fill:#fefddb;}.cls-14,.cls-4{fill:#9ef5ee;}.cls-5{fill:#fe697d;}.cls-10,.cls-6{fill:#8ce08c;}.cls-15,.cls-7{stroke:#9ef5ee;}.cls-7{stroke-width:4px;}.cls-8{fill:#777;}.cls-9{fill:#c2c2c2;}.cls-10,.cls-14{fill-rule:evenodd;}.cls-11{stroke:#2b7c63;stroke-width:2.85px;}.cls-12{fill:#2b7c63;}.cls-13{fill:#fff;}.cls-15{stroke-width:5.14px;}.cls-16{stroke:#fff;stroke-width:16.23px;}.cls-17{fill:#383838;}</style></defs><title>watermelon-pack-illustration-13</title><g id="Layer_2" data-name="Layer 2"><g id="vector"><path class="cls-1" d="M724.55,165.66c63.71,58.11,134.38,114.85,141.35,178.73s-49.61,134.72-113.32,184S618,605.34,522.72,629.81s-214.91,45.53-285.42-3.74S145.39,457.2,174.1,366.14c28.54-91.24,107.2-153.59,177.71-211.69S484.66,42.83,544.46,45.55C604.1,48.44,660.84,107.56,724.55,165.66Z"/><path class="cls-2" d="M675.6,1.53,557.33,330.67l406.35-36.46Z"/><rect class="cls-3" x="230.92" y="133.82" width="654.97" height="360.24"/><polygon class="cls-4" points="257.78 143.72 242.84 169.6 272.72 169.6 257.78 143.72"/><circle class="cls-5" cx="295.5" cy="155.66" r="14.33"/><rect class="cls-6" x="323.01" y="142.51" width="27.09" height="27.09"/><line class="cls-2" x1="200.95" y1="180.6" x2="885.88" y2="180.6"/><path class="cls-7" d="M888.51,633.52c-1.11-13.09-35.34-88.18-72.06-112.2"/><path class="cls-7" d="M902.2,635.82c0-12.82,15.29-58.7,36.24-82.2"/><path class="cls-8" d="M231.59,596.16c0-56.59,111.73-146.57,142.23-146.57,33.13,0,181.68,164.55,181.68,179.54s-60.38.82-64.24-4.17-96.43-55.74-102.56-55.74-30.83,29.84-32.65,35.29S231.59,596.16,231.59,596.16Z"/><path class="cls-9" d="M634.7,653.74c0-14,1.74-48.8,38.9-70.69V684H634.7Z"/><path class="cls-10" d="M199.82,369.54A27.42,27.42,0,1,1,227.24,397,27.42,27.42,0,0,1,199.82,369.54Z"/><path class="cls-10" d="M34.63,755.1a27.42,27.42,0,1,1,27.42,27.42A27.42,27.42,0,0,1,34.63,755.1Z"/><path class="cls-10" d="M88.37,379.48a37.79,37.79,0,1,0-27.68,45.71A37.8,37.8,0,0,0,88.37,379.48Z"/><path class="cls-11" d="M74.84,374.76c-.78-3.17-2.61-5.44-4.08-5.08s-2,3.23-1.26,6.39,2.6,5.44,4.08,5.08S75.62,377.93,74.84,374.76Z"/><rect class="cls-12" x="10.79" y="280" width="17.95" height="67.89" rx="8.97" transform="translate(-133.8 39.41) rotate(-25.62)"/><rect class="cls-13" x="17.15" y="291.92" width="3.21" height="20.96" rx="1.6" transform="translate(-128.91 37.84) rotate(-25.62)"/><path class="cls-14" d="M808.25,557.8l-12.06,16.35-8.13-18.62-8.13-18.61,20.19,2.27,20.18,2.26Z"/><path class="cls-14" d="M848.41,496.5l10.19,17.57-20.31,0-20.31,0,10.12-17.61,10.12-17.61Z"/><path class="cls-5" d="M61.36,441.49c82.54-31.06,146.42,123.06,139,140.36s-90.25,57.6-101.32,52.51C76.19,623.86,10.74,460.53,61.36,441.49Z"/><rect class="cls-9" x="838.86" y="626.2" width="94.05" height="19.48"/><rect class="cls-8" x="851.44" y="645.68" width="68.9" height="63.41"/><circle class="cls-4" cx="924.72" cy="539.34" r="12.34"/><circle class="cls-4" cx="877.99" cy="548.71" r="20.45"/><circle class="cls-4" cx="949.4" cy="585.17" r="12.34"/><circle class="cls-15" cx="450.71" cy="322.2" r="72.08"/><polygon class="cls-15" points="625.19 268.25 485.34 305.72 587.72 408.1 625.19 268.25"/><rect class="cls-15" x="605.33" y="255.66" width="132.84" height="132.84"/><line class="cls-15" x1="101.3" y1="440.04" x2="49.12" y2="527.96"/><line class="cls-15" x1="146.02" y1="470.25" x2="72.43" y2="594.23"/><line class="cls-15" x1="179.12" y1="517.33" x2="110.27" y2="633.34"/><path class="cls-16" d="M106,462.2c13.53,7.93,25.88,19.79,36.66,33.26"/><path class="cls-17" d="M274.66,518.2c-24.28,25.93-43.07,54.75-43.07,78,0,0,122.64,13.8,124.46,8.35,1.66-5,22.29-30.16,30.59-34.61C359.07,552.48,311.25,530.76,274.66,518.2Z"/><path class="cls-9" d="M124.11,661.75c11.41-2.5,85.56-47.06,107-68.09,50.26-18.9,172.18,12.47,200,15.33s209.86,34.9,209.86,34.9c9.27,6.62,1.18,36-6.3,41.38H132.31S119.83,673.15,124.11,661.75Z"/></g></g></svg>