<svg xmlns="http://www.w3.org/2000/svg" viewBox="0 0 718.05 806.44"><defs><style>.cls-1{fill:#f7f7f7;}.cls-10,.cls-2,.cls-4,.cls-6{fill:none;stroke-linecap:round;stroke-linejoin:round;}.cls-2{stroke:#e5e5e5;stroke-width:3.06px;}.cls-3{fill:#fe697d;}.cls-14,.cls-3{fill-rule:evenodd;}.cls-4{stroke:#9ef5ee;stroke-width:5.14px;}.cls-14,.cls-5{fill:#8ce08c;}.cls-6{stroke:#2b7c63;stroke-width:4.49px;}.cls-7{fill:#777;}.cls-8{fill:#383838;}.cls-9{fill:#c2c2c2;}.cls-10{stroke:#fe697d;stroke-width:3px;}.cls-11{fill:#fefddb;}.cls-12{fill:#9ef5ee;}.cls-13{fill:#fff;}.cls-15{fill:#eaeaea;}</style></defs><title>watermelon-pack-illustration-06</title><g id="Layer_2" data-name="Layer 2"><g id="Layer_2-2" data-name="Layer 2"><path class="cls-1" d="M556.84,166.9c44.43,70.11,35.54,167.87,33,263.09s1.41,188-43,218.38-137.12-1.7-220.91-10.72-158.7,5.21-213.86-25.11-91-105.24-84.64-173.66S82,308.11,137.3,238.14s117.37-148,197.35-165.89S512.4,96.93,556.84,166.9Z"/><circle class="cls-2" cx="514.72" cy="503.38" r="201.8"/><path class="cls-3" d="M294.38,390.86c-15.23-58.7-18-254.06,80.27-263.5,67.55-6.5,130.61,172.69,126.82,235.53C460.27,404.22,333.54,417.29,294.38,390.86Z"/><path class="cls-4" d="M450.41,178.73a213.6,213.6,0,0,0,4.66,210.46"/><path class="cls-4" d="M293.1,372a213.57,213.57,0,0,0,87.58-244.86"/><path class="cls-2" d="M221.46,31,1.53,302.93l395.74,99.2Z"/><circle class="cls-5" cx="353.47" cy="53.32" r="49.76"/><path class="cls-6" d="M327.12,2.24a93.09,93.09,0,0,0,83.5,64.33"/><path class="cls-6" d="M319.09,44.22c-.69-5.09.68-9.48,3.05-9.8S327,38,327.67,43.07s-.69,9.47-3.05,9.79S319.77,49.31,319.09,44.22Z"/><path class="cls-7" d="M388.88,545.44c10,17,39.38,71.54,44.28,77.6S604.44,732.1,604.44,732.1c-4.2,10.25-11.65,62.92,17.24,74.34,5.13-17.48,26.57-94.61,26.57-94.61L625.65,706,522.41,582.26s-7.2-165.84-28.87-186.12C472.33,407.56,388.88,545.44,388.88,545.44Z"/><path class="cls-8" d="M479.73,654c-25.37-16.15-44.94-28.94-46.57-31-4.9-6.06-34.26-60.59-44.28-77.6,0,0,83.45-137.88,104.66-149.3C508,409.63,516,487.57,519.72,538.21,511.26,581.59,498.61,623.79,479.73,654Z"/><path class="cls-9" d="M493.54,396.14c-18,11.29-133.87,42.57-164.64,46.16C315.56,464.36,195,736.19,195,736.19c-13.85-10.77-64.63-25.65-81.55-5.64,16.41,10.77,99.5,67.18,99.5,67.18S491,437.69,493.54,396.14Z"/><polygon class="cls-10" points="316.32 120.55 302.65 126.84 314.93 135.54 316.32 120.55"/><rect class="cls-11" x="194.02" y="159.98" width="272.22" height="65.39" transform="translate(-19.32 37.77) rotate(-6.36)"/><rect class="cls-5" x="209.9" y="184.34" width="139.98" height="27.88" rx="4.01" transform="translate(-20.25 32.24) rotate(-6.36)"/><rect class="cls-5" x="407.18" y="167.75" width="42.87" height="27.88" transform="translate(-17.5 48.62) rotate(-6.36)"/><rect class="cls-12" x="301.39" y="176.53" width="164.82" height="53.5" rx="18.67" transform="translate(-4.13 398.57) rotate(-54.63)"/><rect class="cls-12" x="125.63" y="149.57" width="91.54" height="91.54" rx="14.47" transform="translate(-63.02 83.16) rotate(-23.16)"/><circle class="cls-6" cx="168.29" cy="194.1" r="18.96"/><line class="cls-6" x1="199.4" y1="206.56" x2="185.87" y2="201.14"/><rect class="cls-13" x="133.83" y="241.06" width="276.18" height="145" rx="9.05"/><path class="cls-14" d="M349.48,382.7A34.32,34.32,0,1,1,383.8,417,34.32,34.32,0,0,1,349.48,382.7Z"/><path class="cls-14" d="M93,342a34.32,34.32,0,1,1,34.32,34.32A34.31,34.31,0,0,1,93,342Z"/><path class="cls-15" d="M410.23,269.44,410,250.1a9,9,0,0,0-9-9H142.88a9,9,0,0,0-9,9V275C213.65,258,409.41,269.6,410.23,269.44Z"/><line class="cls-6" x1="415.04" y1="160.49" x2="365" y2="230.97"/><rect class="cls-13" x="117.98" y="216.56" width="306.97" height="37.9" rx="8.17"/><path class="cls-4" d="M229.7,156.35v18.08a3.89,3.89,0,0,0,5.83,3.37l15.66-9a3.89,3.89,0,0,0,0-6.74l-15.66-9A3.89,3.89,0,0,0,229.7,156.35Z"/></g></g></svg>